<?xml version="1.0" encoding="UTF-8"?>
<svg id="Layer_1" data-name="Layer 1" xmlns="http://www.w3.org/2000/svg" viewBox="0 0 89.21 100">
  <defs>
    <style>
      .cls-1 {
        fill: #fff;
        stroke-width: 0px;
      }
    </style>
  </defs>
  <path class="cls-1" d="M26.76,68.47c0-.67,0-1.24,0-1.81,0-6.09-.03-12.18.04-18.27,0-.76.37-1.81.93-2.22,3.68-2.63,4.97-6.13,4.26-10.51-.09-.56-.01-1.14-.01-1.79h5.1v2.83c1.46-1.47,2.63-2.63,3.78-3.8,1.18-1.21,2.35-2.43,3.57-3.7.37.29.65.46.88.68,5.43,5.44,10.87,10.87,16.26,16.34.42.43.8,1.14.81,1.72.05,6.52.03,13.05.03,19.57,0,.28-.06.57-.1.94h-13.36v-10.84h-8.61v10.85h-13.59Z"/>
  <path class="cls-1" d="M70.36,70.35c-.02-5.22,4.09-9.41,9.32-9.5,5.17-.08,9.54,4.26,9.53,9.47,0,5.19-4.21,9.36-9.44,9.39-5.23.02-9.39-4.11-9.42-9.36ZM84.72,70.26c-.02-2.78-2.22-4.95-5-4.92-2.77.02-4.97,2.26-4.94,5,.03,2.74,2.29,4.96,5.02,4.94,2.76-.02,4.94-2.25,4.92-5.02Z"/>
  <path class="cls-1" d="M18.85,29.72c0,5.22-4.16,9.4-9.38,9.41C4.22,39.15-.04,34.87,0,29.62c.04-5.15,4.31-9.36,9.5-9.35,5.2.01,9.35,4.2,9.35,9.44ZM9.45,24.74c-2.76,0-4.97,2.23-4.96,4.98.02,2.79,2.2,4.97,4.97,4.96,2.73,0,4.99-2.26,4.99-4.98,0-2.72-2.27-4.97-5-4.97Z"/>
  <path class="cls-1" d="M18.85,70.24c.02,5.26-4.05,9.41-9.3,9.47C4.28,79.77-.03,75.51,0,70.29c.03-5.18,4.26-9.41,9.42-9.43,5.18-.02,9.4,4.18,9.42,9.38ZM9.5,75.28c2.71,0,4.97-2.3,4.95-5.02-.02-2.73-2.29-4.94-5.04-4.92-2.78.02-4.94,2.21-4.92,5.01.02,2.77,2.23,4.94,5,4.94Z"/>
  <path class="cls-1" d="M70.36,29.75c-.01-5.24,4.1-9.41,9.33-9.47,5.21-.06,9.55,4.25,9.53,9.46-.03,5.19-4.24,9.39-9.44,9.39-5.22,0-9.4-4.16-9.41-9.38ZM79.8,34.68c2.76-.01,4.94-2.24,4.92-5.02-.02-2.77-2.22-4.94-5.01-4.93-2.73.01-4.95,2.26-4.94,5.01.02,2.73,2.27,4.94,5.03,4.93Z"/>
  <path class="cls-1" d="M44.58,100c-5.2-.02-9.43-4.24-9.42-9.4.02-5.22,4.37-9.53,9.55-9.45,5.19.08,9.37,4.35,9.33,9.51-.04,5.21-4.25,9.36-9.46,9.34ZM44.55,95.59c2.74.02,5.01-2.2,5.03-4.92.02-2.78-2.14-4.99-4.92-5.02-2.79-.03-5,2.13-5.03,4.9-.03,2.75,2.18,5.02,4.91,5.04Z"/>
  <path class="cls-1" d="M44.83,0c5.22.15,9.37,4.48,9.2,9.6-.17,5.24-4.5,9.42-9.58,9.26-5.23-.17-9.4-4.45-9.29-9.56C35.26,4.03,39.61-.15,44.83,0ZM44.6,14.38c2.76,0,4.98-2.2,4.98-4.96,0-2.75-2.22-4.98-4.97-4.98-2.75,0-4.97,2.22-4.97,4.97,0,2.78,2.19,4.97,4.96,4.97Z"/>
  <path class="cls-1" d="M2.96,40.08c1.43.56,2.72,1.06,4.15,1.62-1.12,5.47-1.19,11.01.02,16.58-1.35.53-2.67,1.06-4.15,1.64-1.6-6.61-1.56-13.17-.03-19.84Z"/>
  <path class="cls-1" d="M56.85,91.03c-.24-1.58-.45-2.95-.67-4.41,5.37-1.77,10.18-4.53,14.34-8.34,1.14.93,2.25,1.82,3.48,2.82-4.91,4.64-10.58,7.91-17.15,9.93Z"/>
  <path class="cls-1" d="M15.21,81.11c1.23-1,2.34-1.9,3.49-2.82,4.13,3.77,8.89,6.55,14.33,8.32-.22,1.46-.43,2.86-.67,4.41-6.54-1.97-12.2-5.27-17.15-9.91Z"/>
  <path class="cls-1" d="M86.25,59.93c-1.44-.57-2.77-1.09-4.15-1.64,1.16-5.51,1.18-11.02,0-16.56,1.36-.54,2.69-1.06,4.15-1.63,1.57,6.63,1.55,13.19,0,19.84Z"/>
  <path class="cls-1" d="M74.01,18.9c-1.22.99-2.34,1.89-3.49,2.82-4.14-3.75-8.89-6.56-14.34-8.31.22-1.43.43-2.84.67-4.41,6.56,1.94,12.2,5.27,17.16,9.89Z"/>
  <path class="cls-1" d="M32.35,9c.24,1.5.46,2.86.7,4.38-5.35,1.78-10.18,4.51-14.34,8.35-1.15-.93-2.27-1.83-3.49-2.82,4.94-4.65,10.59-7.95,17.13-9.91Z"/>
</svg>