<?xml version="1.0" encoding="UTF-8"?>
<svg id="Layer_1" data-name="Layer 1" xmlns="http://www.w3.org/2000/svg" viewBox="0 0 100.09 100">
  <defs>
    <style>
      .cls-1 {
        fill: #fff;
        stroke-width: 0px;
      }
    </style>
  </defs>
  <path class="cls-1" d="M20.01,86.8c-2.2-.19-4.19-.7-5.98-1.8-3.8-2.32-5.54-5.82-5.67-10.18-.06-2.09,0-4.18,0-6.31-.93-.08-1.78-.13-2.62-.23-3.01-.37-5.49-2.84-5.61-5.9-.15-3.64-.19-7.29-.03-10.93.17-3.9,3.02-6.41,6.95-6.45.39,0,.78,0,1.3,0,0-.87,0-1.68,0-2.49.02-2.42-.16-4.85.49-7.24,1.39-5.1,5.79-8.54,11.12-8.55,9.03-.02,18.05,0,27.08,0,.36,0,.72,0,1.2,0,.02-.39.06-.74.06-1.09,0-2.64-.02-5.29.02-7.93.01-.79-.24-1.16-1.01-1.44-5.92-2.21-7.63-9.44-3.19-13.69,2.6-2.48,5.72-3.29,9.13-1.86,3.27,1.38,4.97,3.99,5.18,7.51.2,3.37-2.09,6.73-5.37,7.9-1,.36-1.37.88-1.34,1.93.07,2.52.08,5.04.03,7.56-.02.91.29,1.11,1.15,1.1,8.9-.03,17.81-.03,26.71-.01,5.7.01,10,3.02,11.57,8.21.41,1.37.47,2.86.54,4.31.09,1.87.02,3.75.02,5.58,1.24.18,2.39.3,3.51.52,2.67.53,4.91,3.57,4.85,6.38-.07,3.4-.04,6.81-.01,10.21.02,2.88-2.5,6.06-5.86,6.39-.18.02-.36.03-.55.04-1.94.08-1.89.08-1.95,2.07-.08,2.45.03,4.96-.43,7.34-1.03,5.32-5.73,8.94-11.22,8.95-11.94.01-23.89.02-35.83-.01-1.4,0-2.6.37-3.75,1.15-5.77,3.88-11.55,7.73-17.34,11.57-.44.29-.98.54-1.49.58-1.02.07-1.64-.75-1.65-2.07-.01-3.31,0-6.62,0-9.94,0-.36,0-.72,0-1.19ZM23.46,95.1c.45-.27.77-.44,1.06-.64,4.69-3.13,9.41-6.24,14.07-9.42,1.72-1.18,3.54-1.73,5.62-1.72,11.49.03,22.98.02,34.46,0,.97,0,1.96,0,2.9-.18,4.16-.82,6.78-4.05,6.79-8.36.02-12.03,0-24.07,0-36.1,0-.21,0-.43-.02-.64-.3-4.64-3.66-7.89-8.2-7.94-1.73-.02-3.46-.05-5.2-.05-18.23.01-36.47.03-54.7.05-5.01,0-8.46,3.45-8.46,8.47,0,12.06,0,24.13,0,36.19,0,.58,0,1.16.1,1.72.74,3.82,3.71,6.44,7.63,6.77,2.86.24,3.92,1.39,3.94,4.26,0,.36,0,.73,0,1.09,0,2.09,0,4.19,0,6.49ZM45.11,8.27c-.09,2.76,2.01,4.99,4.82,5.11,2.67.11,5.02-2.14,5.08-4.88.06-2.67-2.11-5.01-4.76-5.11-2.78-.11-5.04,2.04-5.14,4.88ZM8.32,56.74c0-2.43-.04-4.86.02-7.29.02-.83-.28-1.03-1.04-1.04-2.48-.03-3.84,1.19-3.87,3.66-.04,3.04-.04,6.07,0,9.11.03,2.65,1.35,3.86,3.98,3.86.79,0,.95-.29.94-1.01-.04-2.43-.01-4.86-.01-7.29ZM91.87,64.9c2.95.49,4.77-.76,4.84-3.4.09-3.22.07-6.44,0-9.65-.04-1.92-1.07-3.1-2.81-3.37-.64-.1-1.32-.02-2.03-.02v16.44Z"/>
  <path class="cls-1" d="M78.37,51.84c0,4.53-3.75,8.23-8.33,8.23-4.66,0-8.27-3.69-8.29-8.46-.02-4.54,3.68-8.19,8.33-8.21,4.65-.02,8.29,3.68,8.29,8.44ZM69.99,56.67c2.73.04,5.04-2.18,5.08-4.88.04-2.65-2.21-4.98-4.85-5.02-2.82-.05-5.09,2.11-5.15,4.89-.06,2.71,2.16,4.98,4.92,5.02Z"/>
  <path class="cls-1" d="M38.39,51.75c-.03,4.61-3.81,8.36-8.37,8.32-4.61-.04-8.33-3.78-8.32-8.38,0-4.59,3.79-8.34,8.37-8.31,4.63.03,8.35,3.78,8.31,8.36ZM29.99,56.67c2.77.04,4.98-2.12,5.01-4.9.03-2.74-2.11-4.98-4.8-5.01-2.86-.03-5.09,2.1-5.12,4.89-.03,2.76,2.15,4.98,4.91,5.02Z"/>
  <path class="cls-1" d="M50.65,70.08c-3.51-.1-6.44-.59-8.88-2.63-.55-.46-1.07-1-1.47-1.59-.49-.71-.22-1.65.5-2.16.71-.5,1.52-.49,2.03.16,1.42,1.81,3.41,2.51,5.56,2.73,2.63.27,5.23.16,7.49-1.51.46-.34.86-.77,1.31-1.13.9-.73,1.66-.75,2.36-.07.67.65.69,1.6-.02,2.46-1.58,1.91-3.69,2.92-6.07,3.39-1.07.21-2.16.28-2.8.36Z"/>
</svg>