<?xml version="1.0" encoding="UTF-8"?>
<svg id="Layer_1" data-name="Layer 1" xmlns="http://www.w3.org/2000/svg" viewBox="0 0 105.32 100">
  <defs>
    <style>
      .cls-1 {
        fill: #fff;
        stroke-width: 0px;
      }
    </style>
  </defs>
  <path class="cls-1" d="M96.84,32.34c.54-1.17,1.07-2.3,1.6-3.44.79-1.68,1.55-3.36,2.37-5.02.5-1.01,1.43-1.44,2.53-1.29,1.01.14,1.83.83,1.96,1.87.07.57-.03,1.24-.27,1.76-2.05,4.5-4.15,8.97-6.25,13.45-.71,1.51-1.97,1.98-3.48,1.28-4.1-1.89-8.18-3.81-12.27-5.72-.45-.21-.9-.41-1.34-.64-1.3-.67-1.8-2-1.24-3.24.55-1.21,1.95-1.74,3.27-1.16,1.77.78,3.52,1.63,5.28,2.45,1.02.47,2.04.94,3.06,1.42.05-.04.11-.08.16-.12-.85-1.78-1.6-3.61-2.55-5.33-6.7-12.09-16.85-19.7-30.32-22.69-9.71-2.16-19.19-1.05-28.23,3.16-11.66,5.44-19.54,14.34-23.84,26.43-1.58,4.45-2.31,9.09-2.4,13.82-.14,6.89,1.32,13.44,4.21,19.68,4.48,9.66,11.58,16.77,21.06,21.51,4.37,2.19,9,3.59,13.86,4.19,13.78,1.68,25.89-2.12,36.26-11.29,5.62-4.97,9.62-11.11,12.16-18.18.16-.44.34-.89.61-1.27.68-.97,1.88-1.25,2.95-.77,1.02.46,1.68,1.68,1.29,2.77-.7,1.95-1.41,3.91-2.33,5.76-6.83,13.72-17.67,22.62-32.46,26.66-4.36,1.19-8.82,1.73-13.34,1.62-9.18-.22-17.73-2.64-25.53-7.54-11.49-7.21-18.84-17.47-22.19-30.58C.18,56.87-.24,51.77.13,46.61c.63-8.94,3.41-17.16,8.45-24.55C16.06,11.08,26.37,4.17,39.31,1.17,43.81.13,48.38-.19,52.98.11c9.77.63,18.64,3.83,26.56,9.61,7.78,5.68,13.37,13.04,16.94,21.97.07.17.14.33.22.5.02.04.05.06.14.15Z"/>
  <path class="cls-1" d="M34.1,39.64c-.32-5.32,1.15-9.93,5.07-13.59,2.89-2.69,6.37-4.12,10.3-4.23,4.82-.13,8.93,1.63,12.21,5.17,3.29,3.55,4.44,7.87,4.18,12.52,1.27.45,2.51.74,3.61,1.31,3.44,1.79,5.28,4.72,5.34,8.57.1,6.29.04,12.57.02,18.86-.02,5.58-4.38,9.92-9.96,9.92-9.93,0-19.86,0-29.79,0-5.61,0-9.98-4.36-9.98-9.96,0-6.17,0-12.35,0-18.52,0-5,3.31-8.95,8.25-9.87.22-.04.43-.11.74-.18ZM49.8,44.53s0-.01,0-.02c-4.82,0-9.63,0-14.45,0-3.17,0-5.38,2.12-5.39,5.27-.03,6.06-.01,12.12,0,18.18,0,1.6.51,3.02,1.75,4.11,1.1.96,2.42,1.26,3.83,1.27,4.59,0,9.18,0,13.77,0,5.02,0,10.04,0,15.06,0,3.29,0,5.56-1.97,5.57-4.91.04-6.33,0-12.66.01-18.99,0-1-.3-1.91-.86-2.73-1.12-1.64-2.77-2.17-4.64-2.17-4.88-.01-9.77,0-14.65,0ZM49.96,39.61c3.39,0,6.78-.02,10.17.02.7,0,.93-.21.87-.87-.1-1.1-.03-2.23-.25-3.3-1.23-5.81-6.6-9.48-12.46-8.61-5.59.83-9.73,5.65-9.38,12.01.03.53.19.78.81.77,3.41-.04,6.83-.02,10.24-.02Z"/>
  <path class="cls-1" d="M47.52,62.09c0-.2-.02-.41,0-.61.11-1.13-.09-2.05-.99-2.96-1.31-1.32-1.29-3.6-.23-5.15,1.1-1.6,3.05-2.31,4.87-1.77,1.92.57,3.17,2.21,3.19,4.14.02,1.4-.53,2.52-1.54,3.47-.25.23-.37.7-.39,1.06-.05,1.31,0,2.62-.03,3.93-.03,1.09-.53,1.9-1.59,2.29-.93.34-1.85.24-2.48-.51-.41-.48-.66-1.16-.78-1.8-.13-.67-.03-1.39-.03-2.09h0Z"/>
</svg>