<?xml version="1.0" encoding="UTF-8"?>
<svg id="Layer_1" data-name="Layer 1" xmlns="http://www.w3.org/2000/svg" viewBox="0 0 86.99 100">
  <defs>
    <style>
      .cls-1 {
        fill: #fff;
        stroke-width: 0px;
      }
    </style>
  </defs>
  <path class="cls-1" d="M43.49,20.62c16.18,0,29.06,12.96,29.02,29.19-.04,15.89-13.12,28.91-29.05,28.89-16.03-.01-29.02-13.05-29.01-29.11,0-16.11,12.91-28.98,29.04-28.98ZM43.45,73.72c13.28.02,24.2-10.73,24.25-23.89.05-13.3-10.82-24.34-24-24.38-13.52-.04-24.42,10.82-24.42,24.31,0,13.17,10.86,23.94,24.17,23.96Z"/>
  <path class="cls-1" d="M43.36,86.74v4.85H9.92c1.92,1.78,3.5,3.25,5.05,4.69-1.32,1.4-2.4,2.55-3.5,3.72-3.86-3.71-7.6-7.3-11.46-11.01,3.9-3.36,7.68-6.63,11.62-10.03,1.11,1.2,2.16,2.34,3.33,3.61-1.67,1.36-3.21,2.61-5.14,4.18h33.55Z"/>
  <path class="cls-1" d="M75.26,21.11c-1.17-1.32-2.13-2.42-3.2-3.63,1.64-1.37,3.21-2.68,4.78-4l-.09-.41c-5.52,0-11.04,0-16.57,0s-10.97,0-16.56,0v-4.61h33.05c-1.53-1.74-2.92-3.33-4.46-5.08.95-1,2.02-2.12,3.21-3.37,3.87,3.69,7.65,7.29,11.56,11.02-3.96,3.41-7.79,6.7-11.73,10.09Z"/>
  <path class="cls-1" d="M41.7,33.3h3.98c-.56,2.08.65,2.9,2.28,3.77,1.89,1.01,2.98,2.81,2.88,5.33-1.16,0-2.25.06-3.33-.03-.38-.04-.88-.39-1.06-.73-.73-1.35-1.97-1.82-3.24-1.4-.84.27-1.96,1.23-2.03,1.96-.1,1.05.37,2.47,1.11,3.19,1.01.97,2.52,1.44,3.82,2.09,2.9,1.46,5.3,3.41,5.75,6.85.44,3.36-.98,5.95-3.81,7.74-2.21,1.39-2.23,1.36-2.6,3.74h-4.06c-.06-.87-.13-1.71-.19-2.52-4.88-2.45-6.45-4.7-6.04-8.92,1.3.18,2.59.35,3.86.53.87,4.11,3.69,4.75,6.3,3.7,2.68-1.07,3.07-4.36.7-6.01-1.39-.97-2.94-1.75-4.5-2.44-6.24-2.75-6.52-10.93-.99-13.75.69-.35.75-1.93,1.16-3.1Z"/>
</svg>