<?xml version="1.0" encoding="UTF-8"?>
<svg id="Layer_1" data-name="Layer 1" xmlns="http://www.w3.org/2000/svg" viewBox="0 0 131.37 100">
  <defs>
    <style>
      .cls-1 {
        fill: #fff;
        stroke-width: 0px;
      }
    </style>
  </defs>
  <path class="cls-1" d="M131.32,33.39c0,8.61-.09,17.22.05,25.83.05,3-2.63,6.5-5.33,6.98-1.64.3-3.33.35-5,.35-.96,0-1.21.27-1.2,1.21.05,4.84.03,9.67.03,14.51,0,.56-.02,1.13-.11,1.68-.37,2.32-2.57,3.37-4.56,2.1-1.42-.9-2.73-1.97-4.08-2.97-5.03-3.72-3.07-3.05-9.17-3.06-19.35-.03-38.7,0-58.05-.03-1.28,0-2.34.35-3.37,1.12-8.15,6.13-16.32,12.24-24.5,18.33-1.77,1.32-3.97.09-4.37-2.05-.13-.7-.17-1.43-.17-2.14,0-4.71,0-9.42.05-14.13.01-.91-.27-1.18-1.17-1.16-1.96.04-3.94.18-5.81-.62-1.43-.6-2.48-1.59-3.29-2.91-.96-1.57-1.26-3.22-1.25-5.06C.07,54.51.1,37.63,0,20.75c-.02-2.87,2.62-6.49,5.5-6.94,2.07-.33,4.21-.31,6.32-.34,2.1-.03,1.65.08,1.7-1.67.05-1.87-.03-3.75.19-5.6.33-2.79,2.02-4.65,4.62-5.61,1-.37,2.12-.57,3.18-.57C55.44,0,89.36-.01,123.29.02c4.16,0,6.69,2.22,7.9,5.69.13.37.13.8.13,1.2,0,8.83,0,17.66,0,26.49ZM114.08,78.26c0-3.31,0-6.45,0-9.59,0-.06-.02-.12-.02-.19,0-1.83-.07-3.66.05-5.48.08-1.25,1.12-2.18,2.37-2.24,2.24-.11,4.49-.13,6.73-.18,1.78-.04,2.14-.38,2.14-2.15,0-16.73,0-33.45,0-50.18,0-1.71-.38-2.09-2.07-2.17-.22-.01-.44,0-.66,0-33.49,0-66.99,0-100.48,0-2.37,0-2.63.27-2.63,2.63,0,16.29,0,32.58,0,48.87,0,3,0,2.99,3.04,3.02,5.33.04,10.67.07,16,.18,1.72.03,2.91,1.38,2.86,2.96-.06,1.59-1.31,2.81-3.02,2.82-5.99.02-11.99.08-17.98-.03-2.56-.04-4.6-1.28-5.86-3.59-.8-1.46-1.03-3.05-1.03-4.7,0-12.51,0-25.03,0-37.54,0-.42-.04-.84-.06-1.3-1.89,0-3.67-.06-5.45.02-1.58.07-1.98.57-1.98,2.21,0,16.73,0,33.45,0,50.18,0,1.75.47,2.22,2.23,2.24,1.84.02,3.68-.02,5.52.02.67.02,1.39.09,2.01.33,1.43.55,1.66,1.83,1.66,3.16.02,4.09,0,8.18,0,12.26,0,.33.03.66.05,1.17.46-.33.79-.55,1.1-.78,6.29-4.77,12.59-9.52,18.86-14.31,1.68-1.29,3.49-1.88,5.63-1.88,18.23.04,36.46.03,54.69.03.35,0,.71,0,1.3,0-.42-.35-.63-.54-.85-.7-2.32-1.74-4.69-3.43-6.95-5.24-1.35-1.08-2.78-1.5-4.48-1.49-6.96.03-13.92,0-20.88-.02-1.56,0-3.12,0-4.68-.04-1.45-.04-2.6-1.03-2.78-2.31-.23-1.67.44-2.92,1.97-3.36.73-.21,1.54-.27,2.31-.27,8.77.01,17.54.05,26.31.07,1.46,0,2.78.39,3.93,1.27,5.57,4.27,11.13,8.55,16.69,12.84,1.47,1.14,2.91,2.31,4.4,3.49Z"/>
  <path class="cls-1" d="M114.73,31.62c.02,2.93-.95,6.06-2.59,8.97-.48.86-.4,1.33.3,1.96,1.31,1.2,2.55,2.48,3.79,3.75.79.81,1.2,1.75.73,2.88-.79,1.9-2.76,2.32-4.35.85-1.23-1.14-2.39-2.37-3.51-3.63-.48-.54-.85-.6-1.51-.35-2.03.77-4.05,1.69-6.16,2.12-4.95,1.03-9.13-.62-12.63-4.19-6.8-6.94-6.83-18.81-.06-25.64,6.63-6.68,16.75-5.96,22.29,1.65,2.4,3.3,3.72,7.02,3.7,11.62ZM104.19,41.52c-.41-.3-.77-.5-1.06-.78-1.18-1.16-2.38-2.3-3.49-3.53-1.07-1.19-1.02-2.7,0-3.7,1-.98,2.44-1,3.63,0,.38.32.73.68,1.08,1.04,1.03,1.07,2.06,2.15,3.17,3.31.22-.38.41-.66.55-.96,2.22-4.89,1.75-9.59-1.39-13.86-3.49-4.73-9.45-5.29-13.67-1.5-5.23,4.68-5.39,14.04-.33,18.93,3.21,3.1,7.85,3.63,11.5,1.06Z"/>
  <path class="cls-1" d="M80.85,47.24c.01,1.45-.51,2.28-1.52,2.69-1.01.41-1.99.35-2.74-.5-.44-.5-.81-1.11-1.08-1.72-.97-2.22-1.92-4.46-2.81-6.71-.35-.88-.87-1.23-1.83-1.21-3.28.05-6.55.04-9.83,0-.89-.01-1.37.33-1.69,1.13-.93,2.31-1.91,4.6-2.89,6.89-.18.43-.39.86-.65,1.23-.79,1.11-2.03,1.42-3.22.86-1.18-.55-1.8-1.76-1.34-3.04.75-2.08,1.63-4.1,2.49-6.14,3.11-7.4,6.24-14.8,9.36-22.2.13-.32.26-.64.4-.95.5-1.07,1.29-1.79,2.51-1.78,1.22.01,2.04.68,2.51,1.78,1.11,2.61,2.2,5.22,3.31,7.83,2.84,6.74,5.69,13.47,8.52,20.22.26.62.41,1.29.52,1.62ZM66.01,25.22c-1.32,3.14-2.56,6.07-3.83,9.09h7.67c-1.28-3.04-2.51-5.95-3.83-9.09Z"/>
  <path class="cls-1" d="M34.01,21.08v8.01c.4,0,.76,0,1.12,0,3.9,0,7.8,0,11.7,0,1.09,0,2.14.17,2.85,1.1.63.83.74,1.78.26,2.73-.57,1.11-1.6,1.43-2.74,1.44-3.99.02-7.99.01-11.98.01-.37,0-.74,0-1.22,0-.02.42-.05.78-.05,1.14,0,3.93,0,7.86,0,11.79,0,.43-.02.88-.1,1.3-.28,1.55-1.38,2.41-2.9,2.3-1.24-.09-2.21-1.2-2.28-2.65-.03-.68-.01-1.37-.01-2.06,0-9.08,0-18.15,0-27.23,0-2.31.85-3.18,3.14-3.18,5.12,0,10.23,0,15.35,0,1.27,0,2.37.36,2.89,1.64.74,1.79-.54,3.59-2.63,3.64-2.25.06-4.49.02-6.74.02-2.18,0-4.36,0-6.65,0Z"/>
  <path class="cls-1" d="M49.85,66.21c-1.46,0-2.61-1.16-2.58-2.62.02-1.37,1.22-2.6,2.56-2.63,1.4-.03,2.68,1.26,2.68,2.69,0,1.44-1.17,2.56-2.65,2.56Z"/>
</svg>