<?xml version="1.0" encoding="UTF-8"?>
<svg id="Layer_1" data-name="Layer 1" xmlns="http://www.w3.org/2000/svg" viewBox="0 0 99.91 100">
  <defs>
    <style>
      .cls-1 {
        fill: #fff;
        stroke-width: 0px;
      }
    </style>
  </defs>
  <path class="cls-1" d="M99.87,49.99c0,.07,0,.14,0,.21.29,6.41-1.38,12.45-3.62,18.36-2.26,5.95-5.64,11.24-10.03,15.87-7.14,7.53-15.86,12.26-25.94,14.53-1.44.32-2.88.63-4.33.93-.3.06-.62.08-.92.08-3.34,0-6.69.05-10.03-.03-1.07-.03-2.13-.42-3.2-.6-7.33-1.23-14.1-3.86-20.19-8.13-10.66-7.47-17.43-17.59-20.4-30.26C.19,56.63-.17,52.2.07,47.75c.64-11.66,4.71-21.98,12.43-30.77C19.62,8.89,28.48,3.64,38.99,1.24,44.19.05,49.45-.29,54.77.25c8.48.85,16.26,3.63,23.25,8.46,10.82,7.47,17.67,17.67,20.67,30.47.39,1.65.82,3.29,1.09,4.95.17,1.03.08,2.09.09,3.14.01.91,0,1.82,0,2.72ZM92.79,50.07c.03-23.43-19.2-42.71-42.49-42.9C26.73,6.99,7.19,26.38,7.1,49.87c-.08,23.57,19.19,42.77,42.35,43.03,23.77.27,43.4-19.31,43.33-42.83Z"/>
  <path class="cls-1" d="M50.36,33.51c-3.18,0-5.65,1.29-7.52,3.86-1.48,2.04-3.58,2.58-5.65,1.56-1.95-.96-2.73-2.7-2.04-4.76.85-2.51,2.52-4.43,4.66-5.91,5.85-4.04,14.37-4.29,20.06-.45,3.08,2.08,4.6,5.12,5.03,8.76.18,1.56.18,3.1-.2,4.62-.53,2.13-1.7,3.89-3.39,5.26-1.37,1.11-2.78,2.18-4.25,3.16-2.46,1.64-3.68,3.89-3.78,6.83-.09,2.82-2.17,4.35-4.85,4.15-2.63-.2-3.96-1.75-3.95-4.39.02-4.15,1.61-7.6,4.69-10.35,1.55-1.38,3.15-2.7,4.71-4.07.98-.87,1.75-1.87,1.96-3.23.36-2.28-1.09-4.4-3.36-4.81-.7-.13-1.42-.16-2.13-.23Z"/>
  <path class="cls-1" d="M53.87,69.8c.04,3-1.64,5.36-5.44,5.24-3.14-.1-5-1.99-4.96-5.19.04-3.17,2.15-5.24,5.3-5.2,3.05.04,5.13,2.13,5.1,5.15Z"/>
</svg>