<?xml version="1.0" encoding="UTF-8"?>
<svg version="1.1" xmlns="http://www.w3.org/2000/svg" width="600" height="600">
<path d="M0 0 C6.36279073 4.94411762 11.91921277 10.850531 17.59104919 16.5526123 C18.94817749 17.90771421 20.30575038 19.26237099 21.66374207 20.61660767 C24.49238746 23.44085784 27.31560707 26.27039051 30.13499451 29.10388184 C33.72773144 32.7137251 37.33379558 36.30990603 40.94404984 39.90221977 C43.74466721 42.69193733 46.53802751 45.48883401 49.32932281 48.28787613 C50.65544511 49.61598247 51.98375172 50.94191184 53.31438446 52.26549911 C71.70763763 70.58264635 83.67375988 90.96697675 84.24388123 117.58972168 C84.18967876 130.76410992 81.22356155 143.00769147 75.45042419 154.8104248 C75.15192566 155.42337402 74.85342712 156.03632324 74.54588318 156.66784668 C68.59654878 168.16796635 59.96486284 177.23513032 50.88450623 186.26452637 C49.65756898 187.49553826 48.43126875 188.72718533 47.20555115 189.95941162 C43.90249385 193.27604069 40.59014438 196.58323591 37.27552271 199.8883028 C33.79234764 203.36383008 30.31655751 206.84673097 26.83955383 210.32843018 C21.00282193 216.17060408 15.15982965 222.00646049 9.31321716 227.83874512 C2.57176993 234.56386125 -4.15879221 241.29972622 -10.88381851 248.04126 C-16.67897422 253.85006587 -22.48000091 259.65295994 -28.28590119 265.45102668 C-31.74441215 268.90488148 -35.20091409 272.36068141 -38.65211105 275.82184601 C-41.89738754 279.07584167 -45.15001712 282.3223099 -48.40826416 285.56331635 C-49.59673679 286.74785079 -50.78271722 287.93489231 -51.96588516 289.12472534 C-69.7465149 306.99619621 -90.46052152 318.71498452 -116.29957581 318.8104248 C-135.64583457 318.78266549 -152.29722244 312.93459096 -167.79957581 301.5604248 C-166.31391566 298.13261473 -164.36640416 295.84310672 -161.76808167 293.17492676 C-160.52054359 291.88888298 -160.52054359 291.88888298 -159.24780273 290.57685852 C-157.89477806 289.20167305 -157.89477806 289.20167305 -156.51441956 287.79870605 C-155.82242053 287.09448045 -155.82242053 287.09448045 -155.11644173 286.37602806 C-152.67410136 283.89205978 -150.22532407 281.41463831 -147.77149963 278.9420166 C-145.24815464 276.39655124 -142.74903369 273.82862 -140.25464535 271.25481892 C-138.32308359 269.27079252 -136.3737905 267.30491266 -134.41942024 265.34337425 C-133.04120853 263.9507747 -131.6823531 262.53910365 -130.32397461 261.12715149 C-123.27255258 254.12405564 -123.27255258 254.12405564 -118.03614807 253.72521973 C-117.36261795 253.76330246 -116.68908783 253.80138519 -115.99514771 253.84062195 C-110.51883461 253.14173922 -106.23810614 248.24973261 -102.49787903 244.51269531 C-102.00005378 244.01799004 -101.50222852 243.52328477 -100.98931766 243.01358843 C-99.33569204 241.36788943 -97.68924771 239.71519581 -96.04273987 238.06237793 C-94.85341022 236.87576044 -93.66365598 235.68956839 -92.47351074 234.50376892 C-89.25220657 231.29156221 -86.03723645 228.07308578 -82.82365513 224.85315514 C-79.45768395 221.48211267 -76.08682701 218.11596139 -72.7167511 214.74902344 C-67.06090619 209.09681387 -61.4092843 203.44040744 -55.76002502 197.78161621 C-49.22787636 191.23857332 -42.68853973 184.70278073 -36.1454432 178.1706872 C-30.52551635 172.55983295 -24.90949218 166.94509478 -19.29671836 161.32708502 C-15.94532878 157.97257696 -12.59260144 154.61943598 -9.23635101 151.26979065 C-6.08323651 148.12244892 -2.93504618 144.97026355 0.20939445 141.81425667 C1.3646308 140.65637384 2.52157615 139.50019327 3.68033791 138.34583855 C5.260447 136.77118641 6.83427942 135.19051642 8.40666199 133.6081543 C9.2893211 132.72474113 10.17198021 131.84132797 11.08138657 130.93114471 C14.38976622 127.22982228 15.4900831 124.56421476 15.51292419 119.6229248 C15.52968201 118.78890137 15.54643982 117.95487793 15.56370544 117.09558105 C14.75057429 111.4211497 10.61494375 107.68146211 6.70677185 103.79211426 C6.15841171 103.23864319 5.61005157 102.68517212 5.04507446 102.1149292 C3.23999989 100.2960108 1.42764886 98.48456008 -0.38551331 96.67370605 C-1.64742162 95.40790878 -2.90910654 94.14188877 -4.170578 92.87565613 C-6.81174326 90.22704047 -9.4567361 87.58231918 -12.10426331 84.94006348 C-15.49442817 81.55570038 -18.87307515 78.16009215 -22.24872398 74.76125813 C-24.84974778 72.14549776 -27.45767062 69.53670221 -30.06763077 66.92986107 C-31.31628668 65.6806922 -32.56258444 64.42916149 -33.8064537 63.17522621 C-35.54626185 61.42306897 -37.29536179 59.68073614 -39.0471344 57.94055176 C-39.55743698 57.42260544 -40.06773956 56.90465912 -40.59350586 56.37101746 C-44.58703795 52.43558387 -47.67257213 50.75378878 -53.23707581 50.2479248 C-59.75178774 50.81939076 -63.66067652 54.04625758 -68.17720032 58.55709839 C-68.68319268 59.05841077 -69.18918503 59.55972316 -69.71051049 60.07622683 C-71.39419003 61.74799659 -73.06700826 63.43021622 -74.74000549 65.1126709 C-75.94883261 66.31743059 -77.1582965 67.52155164 -78.36834717 68.7250824 C-81.6457246 71.98880231 -84.91356425 75.26191779 -88.17935467 78.53722715 C-91.59988451 81.96535989 -95.02773652 85.3861584 -98.454422 88.80813599 C-104.2062298 94.55448883 -109.95168967 100.30713174 -115.69361877 106.06335449 C-122.33181936 112.71788879 -128.98076884 119.36153619 -135.63539004 125.99964654 C-141.35058096 131.70122452 -147.059906 137.40862682 -152.76436734 143.12093985 C-156.17061947 146.53186852 -159.57886489 149.94073903 -162.99240875 153.3443718 C-166.20033263 156.54363089 -169.40083091 159.75013753 -172.59574318 162.96238899 C-173.76945864 164.14007153 -174.94573515 165.31520801 -176.12473869 166.48759651 C-177.73349382 168.08815529 -179.33272547 169.6976668 -180.92988586 171.30978394 C-181.82729366 172.20832281 -182.72470146 173.10686169 -183.64930344 174.03262901 C-186.82221891 177.76261341 -187.79084911 180.33779088 -187.82569885 185.22033691 C-188.54591039 191.67620564 -193.96926857 195.69162469 -198.38160706 200.00183105 C-199.35825544 200.97811536 -200.33371712 201.95558811 -201.30804443 202.93418884 C-203.34587906 204.97331375 -205.39524163 206.99982703 -207.45411682 209.0177002 C-210.09447216 211.60677857 -212.70711768 214.2218772 -215.31219959 216.84639072 C-217.31966863 218.86414125 -219.33927341 220.8693659 -221.36299706 222.87080193 C-222.33164912 223.83108478 -223.29687755 224.7948338 -224.25860023 225.76205635 C-225.60091584 227.10764485 -226.96120646 228.43523011 -228.32228088 229.76184082 C-229.09203751 230.52158707 -229.86179413 231.28133331 -230.65487671 232.06410217 C-232.79957581 233.5604248 -232.79957581 233.5604248 -234.956604 233.46678162 C-237.98347588 231.97819349 -239.193607 229.17307829 -240.73707581 226.3104248 C-241.08335022 225.68361816 -241.42962463 225.05681152 -241.78639221 224.41101074 C-252.61660553 204.32442041 -255.74947871 180.34337261 -249.19020081 158.2635498 C-242.69861345 140.97696326 -232.47274694 127.77251528 -219.48365784 114.85632324 C-218.25672059 113.62531135 -217.03042036 112.39366428 -215.80470276 111.16143799 C-212.50164546 107.84480892 -209.18929599 104.53761369 -205.87467432 101.23254681 C-202.39149925 97.75701953 -198.91570912 94.27411864 -195.43870544 90.79241943 C-189.60197354 84.95024553 -183.75898126 79.11438912 -177.91236877 73.28210449 C-171.17092154 66.55698836 -164.4403594 59.82112339 -157.7153331 53.07958961 C-151.92017739 47.27078374 -146.1191507 41.46788967 -140.31325042 35.66982293 C-136.85473947 32.21596813 -133.39823752 28.76016819 -129.94704056 25.2990036 C-126.70176407 22.04500794 -123.44913449 18.79853971 -120.19088745 15.55753326 C-119.00241483 14.37299882 -117.81643439 13.1859573 -116.63326645 11.99612427 C-84.02460916 -20.77913046 -38.05226472 -27.89719378 0 0 Z " fill="#F9F9F9" transform="translate(513.7995758056641,20.4395751953125)"/>
<path d="M0 0 C-1.52127797 3.55682697 -3.61584865 5.90241064 -6.30688477 8.66088867 C-7.19863907 9.57831345 -8.09039337 10.49573822 -9.00917053 11.44096375 C-9.98587037 12.4339996 -10.96330084 13.4263173 -11.94140625 14.41796875 C-12.43583662 14.92055017 -12.93026699 15.4231316 -13.4396801 15.94094276 C-16.05707988 18.59998044 -18.68092715 21.25246787 -21.30981445 23.90014648 C-24.0147334 26.62718949 -26.69548803 29.37675706 -29.37147617 32.1321516 C-31.44201976 34.25513314 -33.53028271 36.36000727 -35.62360954 38.46050453 C-36.6194728 39.46607141 -37.60860575 40.47835288 -38.59054756 41.49751854 C-47.2365025 50.45052204 -47.2365025 50.45052204 -52.80444336 50.8762207 C-53.80585609 50.81021416 -53.80585609 50.81021416 -54.82749939 50.74287415 C-60.28450559 51.38873697 -64.5845218 56.33372467 -68.30169678 60.04772949 C-68.79952203 60.54243476 -69.29734728 61.03714004 -69.81025815 61.54683638 C-71.46388376 63.19253537 -73.11032809 64.845229 -74.75683594 66.49804688 C-75.94616558 67.68466436 -77.13591983 68.87085641 -78.32606506 70.05665588 C-81.54736923 73.26886259 -84.76233935 76.48733902 -87.97592068 79.70726967 C-91.34189185 83.07831214 -94.7127488 86.44446341 -98.08282471 89.81140137 C-103.73866962 95.46361093 -109.39029151 101.12001736 -115.03955078 106.77880859 C-121.57169944 113.32185148 -128.11103608 119.85764408 -134.6541326 126.38973761 C-140.27405946 132.00059186 -145.89008362 137.61533003 -151.50285745 143.23333979 C-154.85424702 146.58784785 -158.20697436 149.94098883 -161.56322479 153.29063416 C-164.71633929 156.43797588 -167.86452963 159.59016125 -171.00897026 162.74616814 C-172.1642066 163.90405096 -173.32115196 165.06023153 -174.47991371 166.21458626 C-176.0600228 167.7892384 -177.63385522 169.36990838 -179.20623779 170.95227051 C-180.0888969 171.83568367 -180.97155602 172.71909683 -181.88096237 173.62928009 C-185.15054828 177.28720117 -186.29889903 179.98931753 -186.375 184.875 C-186.40335937 185.69742188 -186.43171875 186.51984375 -186.4609375 187.3671875 C-185.42632756 193.27673916 -180.72035417 197.57779659 -176.6081543 201.68237305 C-176.08236786 202.21487671 -175.55658142 202.74738037 -175.01486206 203.29602051 C-173.28988081 205.03986862 -171.55757892 206.77620158 -169.82421875 208.51171875 C-168.61344601 209.72892531 -167.40282114 210.94627898 -166.19233704 212.16377258 C-163.65984727 214.7082054 -161.12329025 217.24850306 -158.58422852 219.78637695 C-155.33936972 223.03103228 -152.10850323 226.28924338 -148.88099957 229.55115032 C-146.38705785 232.06737588 -143.88403116 234.57441145 -141.37839699 237.07898903 C-140.18353059 238.27620749 -138.99188721 239.47665202 -137.80362511 240.68042564 C-136.13848949 242.36525852 -134.46103103 244.03682712 -132.7800293 245.70581055 C-132.29718979 246.19988907 -131.81435028 246.69396759 -131.31687927 247.20301819 C-127.46712695 250.98355905 -123.25554332 253.68531655 -117.77734375 254.21484375 C-117.17019531 254.12332031 -116.56304687 254.03179688 -115.9375 253.9375 C-115.02291016 253.82728516 -115.02291016 253.82728516 -114.08984375 253.71484375 C-108.7180625 251.87739334 -104.64300307 247.89454063 -100.69830322 243.95899963 C-100.20047797 243.46499993 -99.70265272 242.97100022 -99.18974185 242.46203083 C-97.53612325 240.81866549 -95.88966995 239.16831149 -94.24316406 237.51782227 C-93.0538262 236.33283497 -91.86407218 235.14826525 -90.67393494 233.96408081 C-87.45253446 230.75604054 -84.2375375 227.54165564 -81.02407932 224.3256619 C-78.33929435 221.63980576 -75.65153558 218.95693525 -72.96382213 216.27401012 C-66.62473244 209.94600409 -60.29097214 203.61269834 -53.96044922 197.27612305 C-47.42985303 190.73947944 -40.89011646 184.21208369 -34.3458674 177.68911129 C-28.724213 172.08506289 -23.10837215 166.47523521 -17.49714255 160.86074871 C-14.14703116 157.50882362 -10.79472819 154.15916689 -7.43677521 150.8150959 C-4.28148399 147.67236295 -1.13350852 144.5224823 2.00897026 141.36693954 C3.1633299 140.21021069 4.32025525 139.05603577 5.47991371 137.90461922 C7.06239102 136.33258096 8.63534051 134.75158181 10.20623779 133.16798401 C11.0888969 132.28549264 11.97155602 131.40300127 12.88096237 130.49376774 C16.02622401 126.79229878 17.0050493 124.2269807 16.98510742 119.38110352 C17.72911626 112.73048631 23.69570255 108.34660159 28.23828125 103.90234375 C29.28219032 102.85879871 30.32491299 101.81406563 31.36650085 100.76820374 C33.54555646 98.58785735 35.73618409 96.42009577 37.9362793 94.26098633 C40.75821383 91.49031513 43.55250883 88.69358451 46.3391695 85.88748837 C48.48560364 83.73077376 50.64418452 81.5865709 52.80687523 79.4461689 C53.84251503 78.41890047 54.87472694 77.38816439 55.90343666 76.35395622 C57.33914911 74.91497183 58.79283382 73.49398602 60.24731445 72.07397461 C61.07036575 71.26093369 61.89341705 70.44789276 62.7414093 69.61021423 C65 68 65 68 67.17424011 68.07643127 C70.1762349 69.59500363 71.39630611 72.39156578 72.9375 75.25 C73.28377441 75.87680664 73.63004883 76.50361328 73.98681641 77.14941406 C84.81702973 97.2360044 87.9499029 121.2170522 81.390625 143.296875 C74.89903765 160.58346155 64.67317114 173.78790953 51.68408203 186.70410156 C50.45714478 187.93511345 49.23084456 189.16676052 48.00512695 190.39898682 C44.70206965 193.71561588 41.38972019 197.02281111 38.07509851 200.327878 C34.59192344 203.80340528 31.11613331 207.28630617 27.63912964 210.76800537 C21.80239774 216.61017927 15.95940545 222.44603568 10.11279297 228.27832031 C3.37134574 235.00343645 -3.3592164 241.73930142 -10.0842427 248.4808352 C-15.87939841 254.28964106 -21.68042511 260.09253513 -27.48632538 265.89060187 C-30.94483634 269.34445668 -34.40133829 272.80025661 -37.85253525 276.2614212 C-41.09781173 279.51541687 -44.35044131 282.7618851 -47.60868835 286.00289154 C-48.79716098 287.18742598 -49.98314141 288.37446751 -51.16630936 289.56430054 C-68.88624191 307.37476412 -89.56061097 319.1138963 -115.25 319.3125 C-142.34399713 319.3125 -162.68321163 307.66723521 -181.51959229 288.89724731 C-182.81031925 287.60115007 -184.10065404 286.30466218 -185.390625 285.0078125 C-186.7477533 283.65271059 -188.10532619 282.29805382 -189.46331787 280.94381714 C-192.29196326 278.11956697 -195.11518288 275.2900343 -197.93457031 272.45654297 C-201.52730725 268.8466997 -205.13337138 265.25051878 -208.74362564 261.65820503 C-211.54424302 258.86848747 -214.33760331 256.0715908 -217.12889862 253.27254868 C-218.45502091 251.94444234 -219.78332753 250.61851297 -221.11396027 249.29492569 C-239.50721343 230.97777846 -251.47333569 210.59344806 -252.04345703 183.97070312 C-251.98925456 170.79631488 -249.02313735 158.55273334 -243.25 146.75 C-242.95150146 146.13705078 -242.65300293 145.52410156 -242.34545898 144.89257812 C-236.39612459 133.39245845 -227.76443865 124.32529449 -218.68408203 115.29589844 C-217.45714478 114.06488655 -216.23084456 112.83323948 -215.00512695 111.60101318 C-211.70206965 108.28438412 -208.38972019 104.97718889 -205.07509851 101.672122 C-201.59192344 98.19659472 -198.11613331 94.71369383 -194.63912964 91.23199463 C-188.80239774 85.38982073 -182.95940545 79.55396432 -177.11279297 73.72167969 C-170.37134574 66.99656355 -163.6407836 60.26069858 -156.9157573 53.5191648 C-151.12060159 47.71035894 -145.31957489 41.90746487 -139.51367462 36.10939813 C-136.05516366 32.65554332 -132.59866171 29.19974339 -129.14746475 25.7385788 C-125.90218827 22.48458313 -122.64955869 19.2381149 -119.39131165 15.99710846 C-118.20283902 14.81257402 -117.01685859 13.62553249 -115.83369064 12.43569946 C-83.75838368 -19.80348005 -37.65277928 -27.62606152 0 0 Z " fill="#F9F9F9" transform="translate(255,278)"/>
<path d="M0 0 C7.56160373 5.24017781 13.98575819 12.75302728 15.75390625 21.9765625 C17.18064168 33.70749828 14.02588935 42.62784211 7 52 C4.53361353 54.84469687 1.90725321 57.49909405 -0.76693726 60.14788818 C-1.53004357 60.91567447 -2.29314988 61.68346076 -3.07938063 62.47451329 C-5.61926479 65.02629233 -8.16965093 67.5672975 -10.72021484 70.10839844 C-12.5510826 71.94333428 -14.38131217 73.77890706 -16.21095276 75.61506653 C-20.65420396 80.0716134 -25.10547352 84.52006572 -29.55973218 88.96560803 C-33.18107925 92.58016335 -36.79946737 96.19765638 -40.41579056 99.81723785 C-40.93166039 100.33356738 -41.44753022 100.84989691 -41.97903246 101.38187279 C-43.02718309 102.43098265 -44.07532701 103.48009921 -45.1234643 104.5292224 C-54.9372281 114.35152767 -64.76014288 124.16463984 -74.58624394 133.97460094 C-83.00835379 142.38330475 -91.42256172 150.7998484 -99.83105469 159.22216797 C-109.6089172 169.01610141 -119.39164892 178.80512881 -129.18215144 188.58642793 C-130.22696652 189.63028742 -131.27177537 190.67415316 -132.31657791 191.71802521 C-132.83057091 192.23155538 -133.3445639 192.74508555 -133.87413245 193.27417724 C-137.48749671 196.88495646 -141.09737892 200.49919427 -144.70591354 204.1147995 C-149.56613618 208.98433634 -154.43429346 213.84581956 -159.3078289 218.70203209 C-161.09379873 220.48403946 -162.87722852 222.26859675 -164.65790367 224.05589485 C-167.09141994 226.49762553 -169.53401679 228.92990182 -171.97909546 231.36004639 C-172.67930734 232.06695043 -173.37951922 232.77385448 -174.10094965 233.50217986 C-182.38087382 241.68449465 -189.97265232 245.9782051 -201.8125 246.375 C-211.32739255 246.20346959 -218.25764841 243.54209625 -225.1796875 236.984375 C-232.17863177 229.3546246 -235.54896696 221.72051604 -235.24609375 211.3515625 C-233.95016893 198.96828085 -226.79056049 190.32834043 -218.23306274 181.85211182 C-217.46995643 181.08432553 -216.70685012 180.31653924 -215.92061937 179.52548671 C-213.38073521 176.97370767 -210.83034907 174.4327025 -208.27978516 171.89160156 C-206.4489174 170.05666572 -204.61868783 168.22109294 -202.78904724 166.38493347 C-198.34579604 161.9283866 -193.89452648 157.47993428 -189.44026782 153.03439197 C-185.81892075 149.41983665 -182.20053263 145.80234362 -178.58420944 142.18276215 C-178.06833961 141.66643262 -177.55246978 141.15010309 -177.02096754 140.61812721 C-175.97281691 139.56901735 -174.92467299 138.51990079 -173.8765357 137.4707776 C-164.0627719 127.64847233 -154.23985712 117.83536016 -144.41375606 108.02539906 C-135.99164621 99.61669525 -127.57743828 91.2001516 -119.16894531 82.77783203 C-109.3910828 72.98389859 -99.60835108 63.19487119 -89.81784856 53.41357207 C-88.77303348 52.36971258 -87.72822463 51.32584684 -86.68342209 50.28197479 C-86.16942909 49.76844462 -85.6554361 49.25491445 -85.12586755 48.72582276 C-81.51250329 45.11504354 -77.90262108 41.50080573 -74.29408646 37.8852005 C-69.43386382 33.01566366 -64.56570654 28.15418044 -59.6921711 23.29796791 C-57.90620127 21.51596054 -56.12277148 19.73140325 -54.34209633 17.94410515 C-51.90858006 15.50237447 -49.46598321 13.07009818 -47.02090454 10.63995361 C-45.97058672 9.57959754 -45.97058672 9.57959754 -44.89905035 8.49782014 C-32.77044388 -3.48780606 -15.84792084 -9.48070309 0 0 Z " fill="#F8F8F8" transform="translate(410,179)"/>
<path d="M0 0 C0.66 0.33 1.32 0.66 2 1 C0.35 2.32 -1.3 3.64 -3 5 C-1.125 1.125 -1.125 1.125 0 0 Z M-128 127 C-127.01 127.33 -126.02 127.66 -125 128 C-127.64 130.64 -130.28 133.28 -133 136 C-133.66 135.67 -134.32 135.34 -135 135 C-132.69 132.36 -130.38 129.72 -128 127 Z " fill="#EAEAEA" transform="translate(413,18)"/>
<path d="M0 0 C0.66 0.33 1.32 0.66 2 1 C0.68 1.99 -0.64 2.98 -2 4 C-1.34 2.68 -0.68 1.36 0 0 Z M-127 126 C-126.01 126.33 -125.02 126.66 -124 127 C-126.64 129.64 -129.28 132.28 -132 135 C-132.66 134.67 -133.32 134.34 -134 134 C-131.69 131.36 -129.38 128.72 -127 126 Z " fill="#ECECEC" transform="translate(154,277)"/>
</svg>
