<?xml version="1.0" encoding="UTF-8"?>
<svg id="Layer_1" data-name="Layer 1" xmlns="http://www.w3.org/2000/svg" viewBox="0 0 100.05 100">
  <defs>
    <style>
      .cls-1 {
        fill: #fff;
        stroke-width: 0px;
      }
    </style>
  </defs>
  <path class="cls-1" d="M24.62,10.16c-7.89,5.07-13.74,11.71-17.65,19.99-3.47,7.35-5.07,15.1-4.3,23.39.76,0,1.41-.04,2.04.01.73.06,1.26.46,1.2,1.26-.06.72-.56,1.04-1.28,1.03-.57-.01-1.14,0-1.86,0,.14.87.25,1.65.38,2.42.24,1.39.48,2.79.76,4.17.34,1.68.9,2.1,2.61,2.05.57-.02,1.15-.07,1.72-.04.79.03,1.64.11,1.62,1.18-.02,1.05-.89,1.12-1.67,1.16-.87.04-1.74,0-2.63,0,1.15,6.09,9.71,17.54,16.3,21.77,0-1.12-.02-2.13,0-3.13.07-2.88,1.84-5.16,4.48-5.81.19-.05.37-.1.56-.1.76-.02,1.64-.2,1.82.88.17,1.05-.6,1.24-1.4,1.42-2.26.54-3.16,1.64-3.15,3.98.02,5.36-.54,3.99,3.77,6.61,5.26,3.2,11.1,4.19,17.06,4.8,6.69.68,13.35.33,19.78-1.67,3.07-.96,5.96-2.54,8.89-3.92.39-.18.8-.84.8-1.27,0-4.1.21-8.22-.19-12.29-.62-6.32-5.29-10.52-11.6-10.96-.15-.01-.31,0-.46-.02-.72-.09-1.29-.39-1.24-1.21.05-.81.64-1.09,1.37-1.07,2.53.06,4.93.66,7.11,1.95,4.69,2.78,7.1,6.97,7.31,12.37.13,3.4.02,6.82.02,10.59,1.52-1.18,2.88-2.13,4.13-3.2,9.47-8.15,14.88-18.46,16.41-30.85.79-6.37.17-12.6-1.58-18.74-.06-.22-.11-.45-.17-.67-.19-.71.04-1.33.75-1.4.43-.04,1.17.32,1.3.68.49,1.32.86,2.69,1.16,4.07,2.21,10.36,1.48,20.47-2.85,30.21-7.41,16.68-20.13,26.58-38.17,29.5-10.58,1.71-20.9.38-30.37-4.55-13.99-7.28-23.04-18.68-26.25-34.33-1.92-9.35-1.66-18.65,2.05-27.52C9.99,16.67,21.6,5.76,38.97,1.62,47.31-.37,55.67-.05,63.94,2.32c.29.08.65.11.85.3.37.35.89.78.91,1.2.04.71-.56,1.05-1.28.93-1.43-.23-2.87-.45-4.29-.76-4.96-1.1-9.96-1.64-15.05-1.12-6.09.62-11.8,2.44-17.2,5.28-.85.44-.85,1.19-.85,1.97,0,5.06,0,10.12-.01,15.18,0,.88-.02,1.78-.2,2.63-.61,3.03-2.68,4.93-5.85,5.29-1.83.21-3.43.72-4.52,2.32-.39.57-.93.8-1.57.35-.68-.47-.64-1.09-.25-1.71,1.04-1.63,2.49-2.67,4.41-3.01.83-.15,1.67-.23,2.48-.44,1.93-.5,3.05-1.77,3.07-3.78.06-5.52.02-11.04.02-16.8Z"/>
  <path class="cls-1" d="M83.08,0c8.18.46,15.07,6.24,16.63,14.19.78,3.94.23,7.74-1.74,11.21-4.63,8.18-9.37,16.31-14.08,24.44-.77,1.33-1.74,1.35-2.51.01-4.77-8.24-9.75-16.36-14.2-24.77-5.78-10.94,1.73-24.01,14.07-24.97.61-.05,1.22-.07,1.83-.11ZM82.61,47.18c.18-.19.3-.29.37-.41,4.37-7.58,8.81-15.12,13.05-22.77.93-1.68,1.52-3.73,1.65-5.65.59-8.71-6.34-15.95-15.07-15.96-11.49-.01-18.75,12.15-13.16,22.19,4.07,7.31,8.35,14.51,12.54,21.76.16.28.39.53.62.85Z"/>
  <path class="cls-1" d="M35.93,51.47c.07,2.39-.68,4.81-2.04,7.12-3.32,5.63-6.57,11.3-9.87,16.95-1,1.71-1.78,1.72-2.77.02-3.43-5.88-6.88-11.75-10.23-17.68-2.56-4.52-2.42-9.09.35-13.49,2.9-4.61,7.16-6.73,12.55-6.26,6.19.54,12.36,6,12.02,13.34ZM22.56,73.44c.29-.42.45-.64.58-.87,3.01-5.28,6.03-10.55,9.04-15.83,2.25-3.95,2.05-7.86-.47-11.57-2.48-3.64-6.09-5.22-10.42-4.7-4.61.55-7.63,3.27-9.15,7.63-.91,2.61-.87,5.28.45,7.69,3.2,5.87,6.57,11.64,9.98,17.65Z"/>
  <path class="cls-1" d="M61.53,43.5c-2.91,0-5.83-.08-8.74.02-3.7.13-5.62,2.03-5.81,5.73-.2,3.83-.04,7.6,2.37,10.87.44.59.62,1.28-.16,1.8-.79.51-1.29.01-1.73-.57-1.34-1.77-2.39-3.76-2.52-5.95-.17-2.81-.16-5.67.18-8.46.39-3.22,3.33-5.59,6.58-5.64,6.17-.1,12.34-.12,18.51-.17.3,0,.7-.04.89.12.36.3.85.77.82,1.13-.03.36-.58.91-.97.98-.89.15-1.83.07-2.75.07-2.22,0-4.45,0-6.67,0,0,.02,0,.04,0,.06Z"/>
  <path class="cls-1" d="M58.96,30.44c-1.97-.21-3.99-.2-5.9-.66-3.28-.8-5.36-3.62-5.43-6.99-.03-1.41,0-2.84.19-4.24.59-4.16,3.14-6.47,7.31-6.66,1.84-.09,3.68-.02,5.52-.03.78,0,1.25.34,1.26,1.15,0,.84-.54,1.13-1.28,1.14-1.61.02-3.22,0-4.83.01-3.68.02-5.86,2.18-5.89,5.85-.01,1.07-.09,2.16.07,3.21.43,2.92,2.56,4.64,5.74,4.7,2.3.04,4.6,0,6.9,0,.82,0,1.6.09,1.57,1.19-.03,1-.76,1.12-1.53,1.13-1.23.01-2.45,0-3.68,0l-.02.19Z"/>
  <path class="cls-1" d="M55.15,67.94c-.01.94-1.93,2.97-2.68,2.88-.36-.04-.77-.32-.99-.62-.13-.18-.06-.69.11-.9.6-.73,1.24-1.44,1.95-2.06.21-.18.75-.19,1.02-.05.29.15.45.56.59.75Z"/>
  <path class="cls-1" d="M64.63,55.1c-1.53-1.24-1.52-1.69.03-2.7.44-.29.9-.69,1.39-.75.44-.06,1.04.17,1.34.49.16.16-.05.95-.33,1.19-.73.66-1.59,1.17-2.43,1.77Z"/>
  <path class="cls-1" d="M40.8,77.29c-.32-.29-.87-.55-.95-.91-.08-.37.17-1.06.49-1.23.76-.41,1.62-.71,2.48-.82.32-.04.99.49,1.03.82.05.42-.25,1.09-.61,1.3-.67.4-1.49.54-2.44.85Z"/>
  <path class="cls-1" d="M47.31,74.92c-.52-.34-1.04-.49-1.14-.79-.12-.35-.02-1,.23-1.21.69-.57,1.48-1.06,2.31-1.4.27-.12.89.19,1.12.48.19.24.22.94.03,1.11-.78.67-1.68,1.21-2.56,1.82Z"/>
  <path class="cls-1" d="M62.69,57.12c-.61.7-1.18,1.47-1.87,2.11-.29.27-1.09.49-1.22.35-.3-.33-.58-1.03-.42-1.36.39-.8.95-1.56,1.61-2.16.69-.62,1.27-.25,1.91,1.07Z"/>
  <path class="cls-1" d="M57.67,61.53c.89.03,1.36.71.99,1.41-.41.77-.88,1.53-1.42,2.21-.18.23-.72.38-.98.28-.33-.13-.83-.69-.77-.82.5-1.04,1.11-2.03,1.72-3.01.06-.1.36-.06.46-.07Z"/>
  <path class="cls-1" d="M72.67,49.69c.41.35.89.77,1.37,1.18-.43.42-.79.96-1.3,1.24-.44.24-1.06.34-1.56.25-.48-.08-1.12-.39-1.29-.78-.12-.29.29-1.02.65-1.26.52-.33,1.22-.39,2.12-.64Z"/>
  <path class="cls-1" d="M35.21,75.56c.94-.1,1.84.01,2.05,1.1.14.75-.78,1.23-2.11,1.22-.11,0-.23,0-.34,0-.89,0-1.75-.33-1.69-1.29.05-.85.91-1.12,1.75-1.05.11,0,.23.01.34.02Z"/>
  <path class="cls-1" d="M78.14,49.32c.81,0,1.53.14,1.59,1.11.05.83-.6,1.22-1.84,1.22-.82,0-1.52-.25-1.49-1.18.04-1.09.94-1.12,1.74-1.15Z"/>
  <path class="cls-1" d="M29.13,74.67c.75.02,1.61.64,1.56,1.4-.05.87-.64,1.17-1.42,1.1-.82-.08-1.73-.3-1.78-1.26-.04-.64.41-1.31,1.64-1.24Z"/>
  <path class="cls-1" d="M90.46,16.71c0,4.38-3.5,7.88-7.87,7.86-4.34-.02-7.83-3.48-7.85-7.78-.02-4.37,3.5-7.94,7.82-7.93,4.39,0,7.89,3.48,7.9,7.84ZM82.61,22.24c3.14,0,5.52-2.38,5.51-5.5,0-3.1-2.42-5.56-5.49-5.57-3.01,0-5.57,2.54-5.57,5.54,0,3.04,2.5,5.53,5.55,5.52Z"/>
  <path class="cls-1" d="M28.82,50.88c0,3.41-2.81,6.29-6.16,6.29-3.38,0-6.22-2.85-6.22-6.23,0-3.36,2.78-6.17,6.11-6.18,3.48,0,6.25,2.71,6.26,6.13ZM26.48,50.94c0-2.22-1.61-3.87-3.8-3.89-2.14-.02-3.89,1.7-3.9,3.83-.01,2.08,1.79,3.93,3.84,3.95,2.08.02,3.85-1.77,3.86-3.89Z"/>
</svg>