<?xml version="1.0" encoding="UTF-8"?>
<svg id="Layer_2" data-name="Layer 2" xmlns="http://www.w3.org/2000/svg" viewBox="0 0 305.19 251.71">
  <defs>
    <style>
      .cls-1 {
        fill: #fff;
        stroke-width: 0px;
      }
    </style>
  </defs>
  <g id="Layer_1-2" data-name="Layer 1">
    <path class="cls-1" d="M54.4,242.16h5.15c70.6,0,141.2.02,211.79-.03,8.22,0,15.75-2.02,20.62-9.41,3.59-5.44,3.99-11.69,3.99-17.97,0-41.68,0-83.37.01-125.05,0-1.74.04-3.5.27-5.22.33-2.48,1.77-3.71,4.15-3.82,2.59-.11,4.01.96,4.53,3.59.22,1.13.27,2.31.27,3.47,0,43.93,0,87.86-.03,131.79,0,15.05-9.19,26.98-23.86,30.76-3.32.86-6.84,1.35-10.27,1.36-79.51.07-159.01.13-238.52-.03-11.02-.02-20.3-4.59-26.72-13.94C2.06,232.25-.03,226.52,0,219.6c.23-56.74.13-113.49.13-170.23,0-6.39,4.85-12.22,11.26-13.38,1.86-.33,3.77-.35,5.21-.47,1.85-4.6,3.04-9.48,5.62-13.46,2.88-4.45,8.58-3.62,13.4-4.75.17-1.96.18-3.96.54-5.89C37.55,4.06,42.76.18,51.47.05c6.83-.1,13.65-.04,20.48-.04,65.44,0,130.87,0,196.31.02,2.32,0,4.66.16,6.96.43,6.84.81,10.01,3.73,11.49,10.48.46,2.1.79,4.22,1.19,6.39,2.25.39,4.46.7,6.64,1.15,6.44,1.33,10.45,5.81,10.54,12.37.15,11.06-.06,22.13.05,33.19.03,3.37-1.91,5.33-4.14,7.26-3.4-2.01-5.01-4.72-4.93-8.93.19-10.06-.05-20.12-.26-30.18-.08-4.05-1.24-5.01-5.36-5.2-1-.05-2-.03-3-.03-71.93,0-143.86,0-215.79,0-8.05,0-8.67.62-8.67,8.61,0,27.79-.02,55.58-.03,83.37,0,.99,0,1.97,0,3.13h43.08c0-2.93.01-5.72,0-8.52-.02-4.16-.08-8.32-.09-12.48,0-5.66,1.93-7.62,7.68-7.64,7.33-.03,14.65.03,21.98.05.91,0,1.81,0,3.01,0,.05-.94.13-1.74.14-2.53.05-10.32.11-20.63.1-30.95,0-1.99-.32-3.97-.38-5.96-.11-3.61,1.24-5.12,4.48-5.18,3.56-.06,5.16,1.46,5.16,5.16,0,4.32-.2,8.65-.22,12.97-.04,8.73-.01,17.45-.01,26.59,4.68,0,9.21.02,13.75,0,9.07-.04,18.15-.18,27.22-.12,5.39.03,7.45,2.29,7.47,7.74.02,5.99-.02,11.98-.03,17.97,0,.9,0,1.8,0,3.01h2.91c13.82,0,27.64,0,41.46-.01,1.24,0,2.49-.12,3.73-.23,2.77-.25,4.6,1.21,5.92,3.39,1.05,1.74-.33,4.5-2.74,5.22-1.64.49-3.43.71-5.15.71-14.4.06-28.81.04-43.21.05-.89,0-1.78,0-2.92,0,0,5.22,0,10.19,0,15.16,0,.5.03,1,.03,1.5.05,6.57-1.67,8.29-8.21,8.29-7.31,0-14.62,0-22.26,0,0,1.03,0,1.91,0,2.79-.01,8.9.04,17.81-.06,26.71-.06,5.68-1.73,10.77-6.93,13.81-8.86,5.18-19.6-1.04-19.92-11.65-.29-9.56-.1-19.13-.12-28.7,0-.9,0-1.79,0-2.99-2.13,0-4.02,0-5.91,0-6.66.01-13.32.04-19.98.04-5.09,0-6.97-1.85-6.99-6.88-.02-5.9,0-11.8,0-17.88h-42.98c0,.9,0,1.86,0,2.82,0,26.37-.04,52.75.06,79.12.04,10.32-1.55,20.04-8.83,28.06.08.22.15.44.23.66ZM18.03,45.3c-6.33-1.1-8.53.32-8.54,5.46-.02,56.74-.03,113.48.01,170.22,0,8.84,6.03,16.82,14.57,19.78,8.51,2.95,18.82.21,24.29-6.4,4.21-5.08,5.5-11.09,5.51-17.45.04-31.89.02-63.78.02-95.67,0-23.21,0-46.43,0-69.64,0-6.57-.07-13.15.11-19.72.23-8.24,3.65-12.18,11.7-13.57,2.36-.41,4.8-.4,7.21-.4,66.85-.02,133.7-.02,200.55-.02,4.44,0,4.41,0,4.3-4.35-.06-2.46-1.14-3.93-3.66-4.15-1.49-.13-2.98-.33-4.47-.33-71.93-.02-143.85-.01-215.78-.01-8.06,0-8.74.69-8.74,8.85,0,46.59,0,93.18,0,139.77,0,.75-.15,1.54.03,2.24,1.28,4.8-1.83,7.11-5.03,9.43-3.36-2.57-4.24-5.73-4.23-9.83.16-43.18.1-86.36.1-129.54,0-.8-.07-1.6-.12-2.62-1.62,0-3.03-.06-4.43.01-2.59.14-3.68,1.22-3.95,3.86-.08.83-.11,1.66-.11,2.49,0,8.23.03,16.47-.03,24.7-.02,3.15-.07,6.33-.44,9.45-.28,2.34-1.89,3.53-4.37,3.55-2.39.03-3.79-1.06-4.19-3.36-.21-1.22-.3-2.47-.3-3.71-.03-6.32-.01-12.64-.01-19.08ZM148.05,102.92v18.78h38.45v-18.78h-38.45ZM186.6,131.45h-38.5v15.1h38.5v-15.1ZM115.73,102.98v18.68h22.94v-18.68h-22.94ZM138.67,131.48h-22.98v15.1h22.98v-15.1ZM147.9,156.32c0,1.18,0,2.16,0,3.13-.03,9.22-.08,18.44-.08,27.65,0,3.86,2.37,5.64,6.06,4.54,2.78-.83,2.81-3.23,2.83-5.47.06-6.8.02-13.61.02-20.41,0-3.12,0-6.24,0-9.45h-8.82Z"/>
  </g>
</svg>