<?xml version="1.0" encoding="UTF-8"?>
<svg id="Layer_1" data-name="Layer 1" xmlns="http://www.w3.org/2000/svg" viewBox="0 0 87.8 100">
  <defs>
    <style>
      .cls-1 {
        fill: #fff;
        stroke-width: 0px;
      }
    </style>
  </defs>
  <path class="cls-1" d="M87.79,6.07v.77c0,13.22.05,26.44-.05,39.66-.02,2.44-.52,4.89-.98,7.3-1.15,6.13-3.19,11.96-6.18,17.45-3.13,5.76-7.15,10.82-11.99,15.23-4.4,4-9.2,7.38-14.59,9.94-2.99,1.42-6.09,2.51-9.24,3.48-.51.16-1.15.15-1.66,0-6.35-1.92-12.33-4.65-17.78-8.45-6.12-4.27-11.18-9.57-15.31-15.77-4.03-6.05-6.99-12.57-8.61-19.67-.88-3.83-1.3-7.73-1.31-11.67C.07,32.25.03,20.18,0,8.11c0-1.99.25-2.24,2.22-2.24,3.34,0,6.68,0,10.02.03.88,0,1.57-.28,2.17-.9,1.16-1.2,2.37-2.36,3.5-3.58.89-.96,1.91-1.35,3.22-1.35,8.33.04,16.66.04,25,.03C52.03.09,57.92.02,63.8,0c1.04,0,2.08.08,3.12.22,1.92.25,3.44,1.22,4.58,2.77,1.03,1.41,2.29,2.52,4.06,2.81.96.16,1.95.15,2.93.16,3,.03,6.01.03,9.01.04.06,0,.12.03.29.07ZM81.31,29.59h.02c0-5.35,0-10.69,0-16.04,0-1.02-.14-1.15-1.16-1.15-2.42,0-4.85-.02-7.27.02-.95.02-1.69-.32-2.33-.99-1.21-1.24-2.48-2.43-3.65-3.71-.76-.82-1.6-1.13-2.71-1.13-13.51.02-27.02.02-40.54.02-.21,0-.42,0-.63,0-.66,0-1.2.22-1.67.71-1.34,1.38-2.72,2.72-4.06,4.1-.67.69-1.43,1.01-2.39,1-2.32-.04-4.64-.02-6.95-.02-1.39,0-1.46.08-1.48,1.5-.02,1.48-.05,2.97-.07,4.45-.04,3.74-.11,7.48-.09,11.21.01,2.27.19,4.53.24,6.8.07,3.03.06,6.06.16,9.08.16,4.76,1.06,9.4,2.59,13.91,1.76,5.2,4.32,9.99,7.5,14.45,2.71,3.79,5.88,7.16,9.52,10.08,4.83,3.88,10.23,6.74,16.04,8.84,1.05.38,2.06.37,3.11,0,6.6-2.31,12.57-5.69,17.77-10.38,4.52-4.07,8.35-8.71,11.33-14.02,4.59-8.17,6.63-17.01,6.7-26.33.03-4.14,0-8.27,0-12.41Z"/>
  <path class="cls-1" d="M23.51,47.06c0-3.51,0-7.02,0-10.52,0-1,.12-1.12,1.11-1.12,1.21,0,2.42,0,3.63,0,.82,0,1.04-.22,1.04-1.04,0-2.57,0-5.14,0-7.71,0-7.16,4.8-13.14,11.83-14.49,8.26-1.58,16.03,3.77,17.25,12.15.28,1.95.19,3.95.23,5.93.02,1.4-.04,2.79-.05,4.19,0,.68.26.96.94.97,1.21.01,2.42,0,3.63,0,1.1,0,1.28.16,1.28,1.25.01,2.48.03,4.97.03,7.45,0,3.63,0,7.26-.03,10.9-.02,3.38-.39,6.71-1.94,9.79-3.13,6.25-8.15,10.04-15.01,11.26-6.37,1.13-12.09-.48-16.99-4.72-3.89-3.36-6.19-7.66-6.83-12.77-.19-1.52-.12-3.08-.14-4.62-.02-2.3,0-4.59,0-6.89ZM43.86,41.47h0c-4.45,0-8.9,0-13.35.01-.84,0-.95.12-.96.94,0,3.45-.05,6.89,0,10.34.03,2,.02,4.03.36,5.99,1.26,7.24,8.58,12.38,15.62,11.41,3.93-.54,7.21-2.28,9.68-5.41,2.18-2.76,3.08-5.98,3.11-9.45.03-4.16.01-8.31.01-12.47,0-1.17-.17-1.35-1.33-1.35-4.39,0-8.77,0-13.16,0ZM43.95,35.42h0c2.53,0,5.05,0,7.58,0,.83,0,.98-.19.98-1,0-1.59.07-3.17.04-4.76-.04-1.58,0-3.19-.28-4.74-.83-4.55-5.31-7.54-9.87-6.73-3.8.68-6.8,4.09-6.92,7.96-.09,2.69-.09,5.38-.13,8.07-.01.98.21,1.19,1.22,1.19,2.46,0,4.93,0,7.39,0Z"/>
  <path class="cls-1" d="M46.99,55.94c0,2.55,0,5.1,0,7.65,0,.91-.25,1.15-1.15,1.15-1.25,0-2.5,0-3.76.02-.87,0-1.17-.28-1.17-1.15,0-5.12,0-10.24.01-15.35,0-1.05.21-1.23,1.26-1.21,1.25.02,2.51,0,3.76.01.81,0,1.03.22,1.03,1.05,0,2.61,0,5.22,0,7.83,0,0,0,0,0,0Z"/>
</svg>