<?xml version="1.0" encoding="UTF-8"?>
<svg id="Layer_1" data-name="Layer 1" xmlns="http://www.w3.org/2000/svg" viewBox="0 0 100 100">
  <defs>
    <style>
      .cls-1 {
        fill: #fff;
        stroke-width: 0px;
      }
    </style>
  </defs>
  <path class="cls-1" d="M49.98,100C23.04,100.03.67,78.44.01,51.23-.66,23.19,21.78.41,49.23,0c27.58-.41,50.37,21.7,50.76,49.27.39,27.9-22.19,50.75-50.02,50.72ZM87.64,73.94c11.13-16.91,9.82-42.94-9.72-58.76C58.53-.52,29.88,2.9,14.66,22.75c-7.75,10.11-10.62,21.57-8.77,34.17.97,6.59,3.43,12.62,7.21,18.2.09-.22.15-.34.2-.47,1.34-3.36,3.11-6.49,5.31-9.36,4.88-6.35,11.07-10.92,18.63-13.61.25-.09.43-.08.66.06,3.86,2.33,8.04,3.55,12.55,3.57,4.63.03,8.93-1.19,12.9-3.58.15-.09.39-.12.55-.06,1.24.49,2.51.94,3.71,1.51,8.69,4.13,15.13,10.55,19.33,19.21.24.5.47,1,.72,1.55Z"/>
  <path class="cls-1" d="M50.59,50.61c-10.41.02-18.93-8.47-18.94-18.87-.01-10.49,8.43-19,18.86-19.02,10.52-.01,19,8.44,19,18.94,0,10.47-8.45,18.93-18.93,18.95Z"/>
</svg>