<?xml version="1.0" encoding="UTF-8"?>
<svg id="Layer_1" data-name="Layer 1" xmlns="http://www.w3.org/2000/svg" viewBox="0 0 100.45 100">
  <defs>
    <style>
      .cls-1 {
        fill: #fff;
        stroke-width: 0px;
      }
    </style>
  </defs>
  <path class="cls-1" d="M45.09,0h10.27c3.33.99,6.2,2.63,7.32,6.13.53,1.65.4,3.5.75,5.22.14.69.66,1.55,1.24,1.84.46.23,1.34-.21,1.95-.51.44-.22.75-.71,1.12-1.07,4.53-4.36,10.32-4.37,14.85,0,1.44,1.39,2.86,2.81,4.27,4.24,4.02,4.07,4.28,8.97.54,13.28-1.34,1.54-1.65,3.12-.93,4.9.76,1.89,2.27,2.7,4.3,2.99,1.85.27,3.79.72,5.41,1.6,2.47,1.33,3.51,3.87,4.26,6.47v9.82c-1.53,5.31-4.79,8.26-10.58,8.24-1.04,0-2.6,1.13-2.97,2.1-.36.94.17,2.63.89,3.51,3.34,4.07,3.33,8.67-.32,12.39-2.08,2.12-4.04,4.43-6.39,6.21-1.61,1.22-3.75,1.97-5.77,2.36-2.48.47-4.49-.92-6.43-2.47-.83-.66-2.43-1.05-3.35-.7-.93.35-2.06,1.78-2.06,2.73.01,5.74-2.76,9.16-8.13,10.72h-10.27c-4.64-1.32-7.72-4.12-7.97-9.15-.11-2.27-.85-3.83-2.92-4.75-2.06-.91-3.65-.22-5.23,1.21-3.47,3.16-8.38,3.2-11.95.13-1.57-1.35-3.01-2.87-4.48-4.34-5.48-5.46-5.51-10.63-.24-16.25.6-.64,1.06-1.89.84-2.65-.16-.57-1.53-1.12-2.34-1.1-3.38.07-6.4-.72-8.47-3.5C1.29,58.23.76,56.49,0,54.91c0-3.27,0-6.55,0-9.82,2.15-5.93,4.55-7.94,9.9-8.11,1.71-.05,3.12-.5,3.77-2.17.67-1.71-.36-2.82-1.37-4.12-1.36-1.77-2.81-3.75-3.31-5.86-1.36-5.78,4.82-14.36,11.22-15.85,1.6-.37,3.53-.56,4.98.02,2.26.9,4.18,2.62,6.36,3.78,1,.53,2.46,1.02,3.37.66.93-.36,2.04-1.78,2.04-2.74-.02-5.74,2.78-9.14,8.13-10.7ZM22.76,13.47c-1.15.58-2.37,1.04-3.42,1.76-.91.62-1.62,1.53-2.41,2.31-4.19,4.14-4.23,5.91-.25,10.23,1.92,2.08,2.93,4.46,2.28,7.33-1.02,4.47-3.91,6.79-8.51,6.89-3.57.07-5.09,1.63-5.09,5.22,0,2.08-.02,4.17,0,6.25.03,2.63,1.61,4.3,4.22,4.51.59.05,1.19.04,1.78.01,3.21-.14,5.42,1.4,6.7,4.22,1.35,2.98.65,5.64-1.67,7.91-.48.47-.97.93-1.41,1.43-1.85,2.18-1.79,4.72.2,6.79,1.49,1.56,3.03,3.07,4.58,4.58,2.1,2.06,3.92,2,6.29.18,1.26-.97,2.72-1.93,4.23-2.25,6.4-1.37,11.5,2.7,12.04,9.4.25,3.05,1.64,4.4,4.66,4.47,1.86.04,3.72.02,5.58,0,4.26-.01,5.37-1.07,5.6-5.33.2-3.58,1.77-6.3,5.14-7.66,3.37-1.36,6.52-.89,9.25,1.7,1.94,1.84,3.48,1.8,5.42-.07,1.82-1.75,3.59-3.56,5.37-5.36,2.29-2.31,2.31-3.55.16-6.08-1.72-2.02-2.63-4.3-2.03-6.99,1.01-4.54,3.9-6.83,8.69-6.95,3.32-.08,4.92-1.68,4.94-4.93,0-1.93,0-3.87,0-5.8,0-3.63-1.44-5.15-5.05-5.27-3.8-.12-6.44-2.04-8.1-5.33-1.67-3.3-1.57-6.58.54-9.7q3.28-4.84-.88-8.99c-.21-.21-.43-.41-.63-.63-3.72-4.22-6.49-5.78-11.1-.58-1.82,2.05-4.51,2.23-7.04,1.31-2.55-.92-4.17-2.79-4.55-5.56-.13-.95-.11-1.93-.16-2.89-.14-2.73-1.61-4.26-4.33-4.34-2.3-.07-4.61-.06-6.92-.01-3.01.06-4.39,1.52-4.6,4.54-.09,1.32-.19,2.7-.67,3.91-2.16,5.53-9.32,7.02-13.62,2.88-1.45-1.39-2.74-3.02-5.24-3.14Z"/>
  <path class="cls-1" d="M22.76,13.47c2.5.12,3.79,1.75,5.24,3.14,4.3,4.14,11.46,2.66,13.62-2.88.47-1.21.58-2.59.67-3.91.21-3.02,1.6-4.48,4.6-4.54,2.31-.05,4.61-.06,6.92.01,2.71.08,4.19,1.6,4.33,4.34.05.96.03,1.94.16,2.89.37,2.77,2,4.64,4.55,5.56,2.53.92,5.22.74,7.04-1.31,4.62-5.19,7.38-3.64,11.1.58.2.22.42.42.63.63q4.16,4.15.88,8.99c-2.11,3.12-2.21,6.4-.54,9.7,1.66,3.29,4.31,5.2,8.1,5.33,3.6.12,5.04,1.64,5.05,5.27,0,1.93,0,3.87,0,5.8-.02,3.25-1.62,4.85-4.94,4.93-4.79.12-7.68,2.42-8.69,6.95-.6,2.69.31,4.96,2.03,6.99,2.15,2.53,2.12,3.77-.16,6.08-1.78,1.8-3.55,3.61-5.37,5.36-1.95,1.87-3.48,1.9-5.42.07-2.74-2.59-5.88-3.07-9.25-1.7-3.37,1.36-4.94,4.09-5.14,7.66-.23,4.26-1.34,5.32-5.6,5.33-1.86,0-3.72.03-5.58,0-3.02-.07-4.41-1.42-4.66-4.47-.54-6.7-5.64-10.77-12.04-9.4-1.51.32-2.97,1.29-4.23,2.25-2.37,1.82-4.18,1.87-6.29-.18-1.54-1.51-3.08-3.02-4.58-4.58-1.99-2.07-2.05-4.61-.2-6.79.43-.51.93-.97,1.41-1.43,2.32-2.27,3.02-4.93,1.67-7.91-1.28-2.82-3.49-4.36-6.7-4.22-.59.03-1.19.04-1.78-.01-2.61-.21-4.18-1.89-4.22-4.51-.03-2.08,0-4.17,0-6.25,0-3.59,1.53-5.15,5.09-5.22,4.6-.1,7.49-2.42,8.51-6.89.65-2.87-.36-5.25-2.28-7.33-3.98-4.32-3.94-6.09.25-10.23.79-.78,1.5-1.69,2.41-2.31,1.05-.72,2.27-1.19,3.42-1.76ZM50.25,68.32c10.18-.02,18.48-8.26,18.48-18.35,0-10.07-8.35-18.3-18.53-18.3-10.17,0-18.51,8.3-18.48,18.35.04,10.1,8.36,18.32,18.53,18.3Z"/>
</svg>