<?xml version="1.0" encoding="UTF-8"?>
<svg id="Layer_1" data-name="Layer 1" xmlns="http://www.w3.org/2000/svg" viewBox="0 0 108.45 100">
  <defs>
    <style>
      .cls-1 {
        fill: #fff;
        stroke-width: 0px;
      }
    </style>
  </defs>
  <path class="cls-1" d="M12.81,46.43c0-11.57-.02-23.14.02-34.71,0-1.52.16-3.07.5-4.54.93-3.99,3.73-6.47,7.82-6.74,3.8-.26,7.62-.3,11.42-.31,12.14-.04,24.28,0,36.43-.02,4.82,0,9.65-.14,14.47-.11,3.1.02,6.24-.12,9.28.72,5.5,1.53,8.86,7.68,7.24,13.15-.35,1.17-1.05,1.79-2.41,1.8-3.47.02-6.95-.05-10.42-.06-.67,0-1.36,0-2.01.15-1.09.24-1.68,1.04-1.77,2.11-.1,1.29-.1,2.59-.09,3.88.02,9.31.05,18.63.07,27.94.01,7.91,0,15.82,0,23.74,0,4.8.04,9.6-.04,14.4-.03,1.59-.22,3.21-.56,4.77-.93,4.16-3.73,6.37-7.83,7.03-1.32.21-2.68.3-4.02.31-8.82.02-17.64-.03-26.46-.01-11.05.01-22.1.07-33.15.09-3.16,0-6.06-.78-8.35-3.11-1.89-1.92-2.73-4.32-2.89-6.95-.08-1.18,0-2.39.15-3.56.17-1.29,1.03-2.03,2.33-2.07,2.44-.08,4.87-.08,7.31-.12.26,0,.52,0,.78-.01,1.46-.08,2.18-.79,2.2-2.26.03-2.28.01-4.57.01-6.85,0-9.55,0-19.09,0-28.64ZM51.46,3.25s0,.01,0,.02c-9.13,0-18.27,0-27.4,0-.85,0-1.71.06-2.56.16-2.75.34-4.7,2-5.35,4.61-.22.87-.35,1.79-.35,2.69-.03,7.39-.02,14.79-.02,22.18,0,14.3-.02,28.59-.03,42.89,0,1.89-.01,3.79.05,5.68.05,1.49.82,2.41,2.15,2.66.61.11,1.24.17,1.85.17,3.94-.02,7.89-.1,11.83-.11,9.81-.01,19.61,0,29.42.02.93,0,1.87.05,2.8.12,1.66.13,2.43.93,2.54,2.65.08,1.22.12,2.43.16,3.65.17,4.25,4.29,7.27,8.4,6.15,2.71-.74,4.8-3.4,4.91-6.42.11-3.01.13-6.02.13-9.02,0-10.43-.03-20.86-.04-31.28,0-12.74,0-25.48,0-38.22,0-2.2.24-4.35,1.43-6.28.16-.26.25-.57.32-.87.14-.65-.06-1.17-.77-1.28-.69-.11-1.39-.16-2.08-.16-9.13,0-18.27,0-27.4,0ZM32.57,87.61s0-.03,0-.04c-7.4,0-14.79,0-22.19,0-1.79,0-3.58.02-5.37.09-1.21.04-1.89.58-2,1.46-.42,3.31,1.83,6.8,5.1,7.47,1.88.38,3.86.37,5.8.37,15.31.03,30.62.02,45.93.01.52,0,1.04,0,1.56-.05,1.93-.19,2.85-1.45,2.49-3.33-.23-1.21-.49-2.43-.64-3.65-.16-1.28-.77-2.06-2.05-2.28-.61-.1-1.24-.15-1.86-.14-2.54.01-5.08.07-7.63.08-6.38.01-12.77,0-19.15,0ZM92.75,12.7s0-.08,0-.11c.93,0,1.87.03,2.8,0,.83-.03,1.3-.49,1.5-1.31.73-2.92-2.06-7.11-5.23-7.84-4.31-.99-8.22,1.86-8.6,6.25-.14,1.63.51,2.53,2.08,2.83.61.11,1.23.17,1.85.18,1.87.02,3.73,0,5.6,0Z"/>
  <path class="cls-1" d="M88.33,55.06c0-7.94-.02-15.88.02-23.81,0-1.75.07-3.54.43-5.25.67-3.17,2.88-4.83,6.1-4.92,1.54-.05,3,.2,4.33,1,4.25,2.56,7.38,6.08,8.95,10.84.28.84.27,1.79.28,2.69.02,3.89,0,7.78-.01,11.67,0,.64-.08,1.26-.73,1.6-1.04.54-2.12-.14-2.13-1.38-.03-2,0-4-.02-5.99-.03-2.72-.01-5.45-.18-8.16-.06-.99-.53-1.98-.89-2.93-.13-.33-.47-.63-.78-.82-.92-.55-1.81-.01-1.8,1.05.06,17.43.11,34.85.18,52.28.01,3.27-.99,6.26-2.34,9.17-.98,2.11-1.99,4.21-2.97,6.33-.29.63-.6,1.3-1.38,1.31-.81.02-1.31-.59-1.61-1.28-1.33-3.12-2.7-6.22-3.94-9.38-1.11-2.81-1.7-5.76-1.62-8.8.06-2.38.19-4.77.2-7.15.03-6.02,0-12.03,0-18.05-.04,0-.07,0-.11,0ZM95.39,94.12c.61-1.37,1.18-2.61,1.73-3.86,1.48-3.42,2.25-6.94,2.11-10.71-.18-4.84-.15-9.69-.16-14.54,0-2.8.11-5.6.11-8.4,0-1.71-.65-2.71-2.07-2.94-1.1-.18-2.27-.16-3.38-.01-1.19.16-1.82.99-1.95,2.2-.07.64-.13,1.29-.13,1.94.03,6.17.08,12.34.1,18.51,0,2.92-.39,5.85.18,8.76.62,3.18,1.9,6.1,3.47,9.06ZM91.75,37.73s-.01,0-.02,0c0,2.44,0,4.88,0,7.32,0,1.27-.02,2.54.05,3.81.05.92.63,1.59,1.47,1.66,1.29.1,2.59.19,3.87.08,1.54-.13,2.06-.82,2.05-2.36,0-1.45-.06-2.9-.06-4.36,0-5.29.04-10.58.04-15.87,0-2.39-1.14-3.52-3.53-3.56-.18,0-.36,0-.54,0-2.29.01-3.32,1.03-3.32,3.33,0,3.32,0,6.64,0,9.96Z"/>
  <path class="cls-1" d="M54.22,21.14c3.06,0,6.12,0,9.18,0,.44,0,.88.05,1.31.14.7.15,1.16.56,1.21,1.31.06.78-.3,1.38-1.09,1.57-.72.17-1.49.22-2.23.23-5.76.02-11.51.02-17.27,0-.56,0-1.13-.1-1.68-.24-.73-.18-1.03-.73-1.03-1.46,0-.76.42-1.22,1.12-1.39.47-.12.97-.17,1.46-.17,3.01-.01,6.02,0,9.02,0h0Z"/>
  <path class="cls-1" d="M54.23,66.32c-3.16,0-6.33,0-9.49,0-.41,0-.83-.05-1.22-.18-.65-.2-.93-.69-.89-1.38.03-.67.36-1.06,1.01-1.18.3-.05.61-.11.92-.11,6.48,0,12.96,0,19.44,0,.31,0,.62.06.92.13.6.14.94.52.99,1.14.05.64-.23,1.14-.83,1.35-.43.15-.91.21-1.37.21-3.16.02-6.33,0-9.49,0Z"/>
  <path class="cls-1" d="M54.29,45.15c-3.19,0-6.38,0-9.56,0-.38,0-.78-.03-1.15-.11-.69-.16-.94-.64-.93-1.33,0-.66.31-1.1.93-1.25.42-.1.87-.15,1.3-.15,6.25,0,12.49,0,18.74,0,.39,0,.78.04,1.15.12.76.17,1.15.66,1.11,1.36-.04.75-.48,1.24-1.26,1.34-.26.03-.52.02-.78.02-3.19,0-6.38,0-9.56,0Z"/>
  <path class="cls-1" d="M23.08,25.6c.17.09.55.24.86.48.3.23.53.57.79.85,1.36,1.49,2.54,1.56,3.98.15,1.26-1.23,2.46-2.53,3.72-3.76.65-.63,1.33-1.24,2.07-1.75.78-.55,1.56-.33,1.9.53.13.32.1.87-.09,1.12-2.55,3.29-5.41,6.27-8.76,8.77-.51.38-1,.4-1.51.12-1.84-.99-3.33-2.38-4.32-4.23-.54-1.01.12-2.25,1.38-2.28Z"/>
  <path class="cls-1" d="M22.91,67.67c.39.26.8.49,1.15.8.38.34.67.79,1.04,1.15.98.93,2.1,1.03,3.16.19.76-.61,1.41-1.37,2.11-2.05,1.24-1.21,2.48-2.43,3.74-3.62.5-.47,1.1-.68,1.77-.28.81.49.97,1.34.3,2.01-2.72,2.74-5.46,5.46-8.21,8.18-.51.5-1.11.63-1.76.23-1.83-1.14-3.37-2.59-4.51-4.42-.6-.95.02-2.03,1.21-2.19Z"/>
  <path class="cls-1" d="M26.81,53.37c-.34-.16-.67-.23-.89-.43-1.32-1.23-2.66-2.45-3.9-3.76-.64-.68-.53-1.55.04-2,.64-.51,1.52-.38,2.15.33.28.31.52.65.82.94,1.1,1.04,2.15,1.11,3.32.15.64-.53,1.18-1.17,1.77-1.74,1.36-1.32,2.69-2.66,4.11-3.92.89-.79,1.8-.61,2.13.36.11.32.03.86-.18,1.12-1.26,1.51-2.51,3.04-3.9,4.43-1.41,1.41-2.96,2.67-4.47,3.98-.28.24-.66.38-1,.57Z"/>
  <path class="cls-1" d="M49.96,32.69c-1.68,0-3.37,0-5.05,0-.41,0-.83-.06-1.23-.15-.71-.17-1.11-.65-1.13-1.38-.02-.68.46-1.3,1.18-1.45.5-.11,1.03-.15,1.54-.15,3.13-.01,6.27-.01,9.4,0,.51,0,1.04.03,1.54.14.66.15,1.1.58,1.15,1.29.05.74-.31,1.26-.98,1.51-.38.14-.81.19-1.21.19-1.73.02-3.47,0-5.2,0Z"/>
  <path class="cls-1" d="M49.89,53.51c-1.76,0-3.53,0-5.29,0-.31,0-.62-.03-.93-.08-.68-.12-1.05-.52-1.06-1.22,0-.72.36-1.19,1.05-1.34.48-.1.98-.14,1.47-.14,3.37-.01,6.74-.01,10.11,0,.33,0,.67.06,1,.12.72.13,1.07.61,1.09,1.31.02.69-.45,1.17-1.22,1.26-.67.07-1.34.09-2.02.1-1.4.01-2.8,0-4.2,0Z"/>
  <path class="cls-1" d="M50.22,72c1.87,0,3.73-.01,5.6,0,.92,0,1.46.46,1.52,1.22.06.74-.44,1.27-1.34,1.4-.33.05-.67.06-1.01.07-3.42,0-6.84.01-10.26.01-.26,0-.52-.03-.77-.09-.81-.18-1.17-.64-1.14-1.42.03-.71.44-1.17,1.27-1.18,2.05-.04,4.09-.01,6.14-.01,0,0,0,0,0,0Z"/>
</svg>